# xmcd
# 
# Track frame offsets:
#     150
#     14934
#     31882
#     51096
#     66248
#     82410
#     100033
#     115745
#     136311
#     153767
# 
# Disc length: 2231
# 
# Revision: 1
# Processed by: cddbd v1.5.2PL0 Copyright (c) Steve Scherf et al.
# Submitted via: BonkEnc v1.0
# 
DISCID=8308b50a
DTITLE=Zé Geraldo - Ninho de Sonhos
DYEAR=1994
DGENRE=Blues
TTITLE0=Ninho De Sonhos
TTITLE1=Visitinha De Beija-Flor
TTITLE2=Galho Seco
TTITLE3=Onde Jaz Meu Coração
TTITLE4=Cantiga De Chuva
TTITLE5=Filhos Da Noite
TTITLE6=Truques Do Tempo
TTITLE7=Nem Pink Floyd Explica
TTITLE8=Piratininga
TTITLE9=Bolo De Aniversário
EXTD=
EXTT0=
EXTT1=
EXTT2=
EXTT3=
EXTT4=
EXTT5=
EXTT6=
EXTT7=
EXTT8=
EXTT9=
PLAYORDER=
